<svg id="visual" viewBox="0 0 900 600" width="900" height="600" xmlns="http://www.w3.org/2000/svg" xmlns:xlink="http://www.w3.org/1999/xlink" version="1.1"><path d="M0 19L64 25L129 19L193 19L257 37L321 43L386 25L450 19L514 49L579 49L643 37L707 25L771 19L836 49L900 31L900 0L836 0L771 0L707 0L643 0L579 0L514 0L450 0L386 0L321 0L257 0L193 0L129 0L64 0L0 0Z" fill="#00cc8e"></path><path d="M0 55L64 67L129 73L193 49L257 97L321 91L386 91L450 49L514 85L579 103L643 91L707 97L771 55L836 91L900 73L900 29L836 47L771 17L707 23L643 35L579 47L514 47L450 17L386 23L321 41L257 35L193 17L129 17L64 23L0 17Z" fill="#00c38c"></path><path d="M0 115L64 127L129 115L193 85L257 121L321 163L386 157L450 103L514 139L579 133L643 163L707 151L771 115L836 127L900 139L900 71L836 89L771 53L707 95L643 89L579 101L514 83L450 47L386 89L321 89L257 95L193 47L129 71L64 65L0 53Z" fill="#00b98a"></path><path d="M0 169L64 187L129 151L193 145L257 151L321 211L386 193L450 145L514 175L579 175L643 187L707 169L771 175L836 169L900 169L900 137L836 125L771 113L707 149L643 161L579 131L514 137L450 101L386 155L321 161L257 119L193 83L129 113L64 125L0 113Z" fill="#00b087"></path><path d="M0 319L64 355L129 271L193 307L257 313L321 409L386 301L450 319L514 295L579 325L643 259L707 367L771 265L836 229L900 343L900 167L836 167L771 173L707 167L643 185L579 173L514 173L450 143L386 191L321 209L257 149L193 143L129 149L64 185L0 167Z" fill="#00a784"></path><path d="M0 403L64 445L129 367L193 415L257 433L321 487L386 433L450 391L514 463L579 451L643 427L707 457L771 427L836 415L900 469L900 341L836 227L771 263L707 365L643 257L579 323L514 293L450 317L386 299L321 407L257 311L193 305L129 269L64 353L0 317Z" fill="#009e80"></path><path d="M0 487L64 499L129 463L193 505L257 487L321 535L386 481L450 463L514 505L579 505L643 511L707 493L771 511L836 457L900 511L900 467L836 413L771 425L707 455L643 425L579 449L514 461L450 389L386 431L321 485L257 431L193 413L129 365L64 443L0 401Z" fill="#00957c"></path><path d="M0 535L64 535L129 481L193 559L257 529L321 565L386 535L450 511L514 553L579 541L643 559L707 517L771 559L836 505L900 541L900 509L836 455L771 509L707 491L643 509L579 503L514 503L450 461L386 479L321 533L257 485L193 503L129 461L64 497L0 485Z" fill="#008c78"></path><path d="M0 601L64 601L129 601L193 601L257 601L321 601L386 601L450 601L514 601L579 601L643 601L707 601L771 601L836 601L900 601L900 539L836 503L771 557L707 515L643 557L579 539L514 551L450 509L386 533L321 563L257 527L193 557L129 479L64 533L0 533Z" fill="#038373"></path></svg>